# xmcd CD database file
#
# Track frame offsets:
#	183
#	1445
#	6245
#	10448
#	15550
#	21355
#	24165
#	28070
#	32195
#	36545
#	47470
#	53730
#	63768
#	77418
#	89100
#	100975
#	120475
#	127648
#	143378
#	157508
#	169345
#	188078
#	199303
#	215260
#
# Disc length: 3026 seconds
#
# Revision: 4
# Processed by: cddbd v1.5.2PL0 Copyright (c) Steve Scherf et al.
# Submitted via: CDex 1.70beta2
#
DISCID=270bd018
DTITLE=Saragossa Band - Coconut Groove
DYEAR=1993
DGENRE=pop - Rock
TTITLE0=Coconut Groove
TTITLE1=Ritmo De La Noche
TTITLE2=Soca Dance
TTITLE3=Annie, I'm Not Your Daddy
TTITLE4=Cuba
TTITLE5=D.I.S.C.O.
TTITLE6=Gimme Hope Jo'anna
TTITLE7=Que Sera
TTITLE8=Kissin' In The Back Row Of The Movies
TTITLE9=Sweat (A La La La Long)
TTITLE10=In The Summertime
TTITLE11=Sunshine Reggae
TTITLE12=Matador
TTITLE13=All That She Wants
TTITLE14=Rastman
TTITLE15=Night Of The Lion
TTITLE16=I Don't Wanna Dance
TTITLE17=I Can Help
TTITLE18=Celebration
TTITLE19=Ladie's Night
TTITLE20=All Night Long (All Night)
TTITLE21=Bamboleo
TTITLE22=Baila Me
TTITLE23=Get Into The Groove
EXTD=YEAR: 1993
EXTT0=
EXTT1=
EXTT2=
EXTT3=
EXTT4=
EXTT5=
EXTT6=
EXTT7=
EXTT8=
EXTT9=
EXTT10=
EXTT11=
EXTT12=
EXTT13=
EXTT14=
EXTT15=
EXTT16=
EXTT17=
EXTT18=
EXTT19=
EXTT20=
EXTT21=
EXTT22=
EXTT23=
PLAYORDER=
